<svg width="77" height="78" viewBox="0 0 77 78" fill="none" xmlns="http://www.w3.org/2000/svg">
<g clip-path="url(#clip0_334_47)">
<rect width="76.71" height="76.71" transform="translate(0 0.5)" fill="#9FA244"/>
<path d="M70.14 0.5H6.57C2.94149 0.5 0 3.44149 0 7.07V70.64C0 74.2685 2.94149 77.21 6.57 77.21H70.14C73.7685 77.21 76.71 74.2685 76.71 70.64V7.07C76.71 3.44149 73.7685 0.5 70.14 0.5Z" fill="#9FA244"/>
<path d="M38.3508 28.7319C46.4508 28.7319 53.5408 25.2919 57.4208 20.1619C53.5408 13.8819 46.4508 9.67188 38.3508 9.67188C30.2508 9.67188 23.1608 13.8819 19.2808 20.1619C23.1608 25.2919 30.2508 28.7319 38.3508 28.7319ZM61.1908 24.4719C56.6308 29.4919 49.4908 32.9419 41.3108 33.6119L52.2408 68.0319C60.9108 62.5119 66.6608 52.9019 66.6608 41.9519C66.6608 35.4619 64.6408 29.4519 61.1908 24.4719ZM15.5208 24.4719C20.0808 29.4919 27.2208 32.9419 35.4008 33.6119L24.4708 68.0319C15.8008 62.5119 10.0508 52.9019 10.0508 41.9519C10.0508 35.4619 12.0708 29.4519 15.5208 24.4719ZM38.3508 55.2219C40.0108 55.2219 41.6608 54.8519 43.1808 54.1319L41.8808 49.3919C40.8256 50.0677 39.5988 50.4269 38.3458 50.4269C37.0927 50.4269 35.8659 50.0677 34.8108 49.3919L33.5108 54.1319C35.0408 54.8519 36.6908 55.2219 38.3408 55.2219H38.3508ZM38.3508 64.3619C40.8808 64.3619 43.3308 63.8819 45.6208 63.0019L44.2908 58.1519C42.4408 58.9419 40.4308 59.3619 38.3508 59.3619C36.2708 59.3619 34.2708 58.9419 32.4108 58.1519L31.0808 63.0019C33.3708 63.8819 35.8208 64.3619 38.3508 64.3619Z" fill="white"/>
</g>
<defs>
<clipPath id="clip0_334_47">
<rect width="76.71" height="76.71" fill="white" transform="translate(0 0.5)"/>
</clipPath>
</defs>
</svg>
