<svg width="77" height="78" viewBox="0 0 77 78" fill="none" xmlns="http://www.w3.org/2000/svg">
<g clip-path="url(#clip0_334_30)">
<rect width="76.71" height="76.71" transform="translate(0 0.5)" fill="#6DC8EB"/>
<path d="M70.14 0.5H6.57C2.94149 0.5 0 3.44149 0 7.07V70.64C0 74.2685 2.94149 77.21 6.57 77.21H70.14C73.7685 77.21 76.71 74.2685 76.71 70.64V7.07C76.71 3.44149 73.7685 0.5 70.14 0.5Z" fill="#6DC8EB"/>
<path d="M31.3982 12.2362L38.3492 5.28516L45.2992 12.2352L38.3492 19.1862L31.3982 12.2362ZM11.4902 48.7392H21.3202V58.5692H11.4902V48.7392ZM31.3972 65.4652L38.3482 58.5152L45.2982 65.4652L38.3482 72.4162L31.3972 65.4652ZM55.3802 19.2492V29.0192L38.3502 19.1892L21.3202 29.0192V19.2492H11.4902V29.0792H21.3202V48.6792L38.3502 58.5092L55.3802 48.6792V29.0792H65.2102V19.2492H55.3802ZM31.1402 34.8192V44.4392H26.0302V31.8392H26.0802L36.9402 25.5692L39.4902 29.9892L31.1302 34.8192H31.1402ZM55.3802 48.7392H65.2102V58.5692H55.3802V48.7392Z" fill="white"/>
</g>
<defs>
<clipPath id="clip0_334_30">
<rect width="76.71" height="76.71" fill="white" transform="translate(0 0.5)"/>
</clipPath>
</defs>
</svg>
