<svg width="77" height="78" viewBox="0 0 77 78" fill="none" xmlns="http://www.w3.org/2000/svg">
<g clip-path="url(#clip0_334_41)">
<path d="M70.14 0.5H6.57C2.94149 0.5 0 3.44149 0 7.07V70.64C0 74.2685 2.94149 77.21 6.57 77.21H70.14C73.7685 77.21 76.71 74.2685 76.71 70.64V7.07C76.71 3.44149 73.7685 0.5 70.14 0.5Z" fill="#BFB889"/>
<path d="M58.7103 18.5003L61.3803 30.2203L46.9903 15.8303L58.7103 18.5003L50.2803 10.0703H26.4303L9.57031 26.9303V50.7803L17.8003 59.0103L13.3103 39.2903L37.5203 63.5003L17.8003 59.0103L26.4303 67.6403H50.2803L58.7103 59.2103L38.9903 63.7003L63.2003 39.4903L58.7103 59.2103L67.1403 50.7803V26.9303L58.7103 18.5003Z" fill="white"/>
</g>
<defs>
<clipPath id="clip0_334_41">
<rect width="76.71" height="76.71" fill="white" transform="translate(0 0.5)"/>
</clipPath>
</defs>
</svg>
