<svg width="77" height="78" viewBox="0 0 77 78" fill="none" xmlns="http://www.w3.org/2000/svg">
<g clip-path="url(#clip0_334_44)">
<rect width="76.71" height="76.71" transform="translate(0 0.5)" fill="#5185C5"/>
<path d="M70.14 0.5H6.57C2.94149 0.5 0 3.44149 0 7.07V70.64C0 74.2685 2.94149 77.21 6.57 77.21H70.14C73.7685 77.21 76.71 74.2685 76.71 70.64V7.07C76.71 3.44149 73.7685 0.5 70.14 0.5Z" fill="#5185C5"/>
<path d="M53.9992 42.0684C53.9992 42.0684 50.0392 35.2084 48.1492 32.2884C46.1792 29.2184 44.3292 25.5584 42.8892 19.6784C41.4492 13.8084 40.6692 8.14844 38.3492 8.14844C36.0292 8.14844 35.2492 13.7984 33.8092 19.6784C32.3692 25.5484 30.5192 29.2084 28.5492 32.2884C26.6692 35.2184 22.6992 42.0684 22.6992 42.0684C21.006 44.882 20.1138 48.1047 20.1192 51.3884C20.1192 61.4184 28.3192 69.5584 38.3492 69.5584C48.3792 69.5584 56.5792 61.4284 56.5792 51.3884C56.5792 47.9784 55.6292 44.7984 53.9992 42.0684ZM38.3492 65.4584C30.1692 65.4584 23.7392 59.3584 23.7392 54.9584C23.7392 52.0484 30.1692 57.4784 38.3492 57.4784C46.5292 57.4784 52.9592 52.0484 52.9592 54.9584C52.9592 59.3684 46.5292 65.4584 38.3492 65.4584Z" fill="white"/>
</g>
<defs>
<clipPath id="clip0_334_44">
<rect width="76.71" height="76.71" fill="white" transform="translate(0 0.5)"/>
</clipPath>
</defs>
</svg>
