<svg width="77" height="78" viewBox="0 0 77 78" fill="none" xmlns="http://www.w3.org/2000/svg">
<g clip-path="url(#clip0_334_5)">
<rect width="76.71" height="76.71" transform="translate(0 0.5)" fill="#DAB4D4"/>
<path d="M70.14 0.5H6.57C2.94149 0.5 0 3.44149 0 7.07V70.64C0 74.2685 2.94149 77.21 6.57 77.21H70.14C73.7685 77.21 76.71 74.2685 76.71 70.64V7.07C76.71 3.44149 73.7685 0.5 70.14 0.5Z" fill="#DAB4D4"/>
<path d="M66.3595 12.5791C64.1795 10.3991 50.7495 9.41905 41.7095 18.459C40.1595 20.009 39.0795 21.8591 38.4595 23.8091C37.8395 21.8491 36.7595 20.009 35.2095 18.459C26.1695 9.41905 12.7395 10.3991 10.5595 12.5791C8.37952 14.7591 7.39952 28.189 16.4395 37.229C18.3495 39.139 20.6995 40.3391 23.1695 40.8391C18.1695 45.1691 17.5995 52.0191 18.5595 53.3591C19.5795 54.7791 26.9595 56.569 32.8695 52.419C32.5995 53.209 32.3395 54.0191 32.0795 54.8591C29.6095 62.9391 28.6895 69.8191 30.0095 70.2191C31.3395 70.6291 34.4195 64.4091 36.8895 56.3291C37.5095 54.2991 38.0395 52.3391 38.4495 50.5391C38.8595 52.3391 39.3895 54.2991 40.0095 56.3291C42.4795 64.4091 45.5595 70.6291 46.8895 70.2191C48.2195 69.8091 47.2895 62.9291 44.8195 54.8591C44.5595 54.0191 44.2995 53.209 44.0295 52.419C49.9395 56.569 57.3295 54.7791 58.3395 53.3591C59.2995 52.0191 58.7295 45.1791 53.7295 40.8391C56.1995 40.3391 58.5495 39.139 60.4595 37.229C69.4995 28.189 68.5195 14.7591 66.3395 12.5791H66.3595ZM38.4595 40.6291C34.1495 40.6291 30.4195 38.179 28.5595 34.599C33.5695 34.579 37.7095 30.8591 38.3695 26.0291C38.3895 25.9091 38.5395 25.9091 38.5495 26.0291C39.2095 30.8591 43.3495 34.589 48.3595 34.599C46.4995 38.179 42.7695 40.6291 38.4595 40.6291Z" fill="white"/>
</g>
<defs>
<clipPath id="clip0_334_5">
<rect width="76.71" height="76.71" fill="white" transform="translate(0 0.5)"/>
</clipPath>
</defs>
</svg>
