<svg width="77" height="78" viewBox="0 0 77 78" fill="none" xmlns="http://www.w3.org/2000/svg">
<g clip-path="url(#clip0_334_23)">
<rect width="76.71" height="76.71" transform="translate(0 0.5)" fill="#684870"/>
<path d="M70.14 0.5H6.57C2.94149 0.5 0 3.44149 0 7.07V70.64C0 74.2685 2.94149 77.21 6.57 77.21H70.14C73.7685 77.21 76.71 74.2685 76.71 70.64V7.07C76.71 3.44149 73.7685 0.5 70.14 0.5Z" fill="#684870"/>
<path d="M64.729 38.0181C62.279 37.4381 60.259 38.4981 58.979 39.4981C59.469 37.4381 59.749 35.4081 59.749 33.4781C59.749 21.6581 50.169 12.0781 38.349 12.0781C26.529 12.0781 16.949 21.6581 16.949 33.4781C16.949 35.4081 17.229 37.4381 17.719 39.4981C16.439 38.5081 14.409 37.4381 11.969 38.0181C8.45904 38.8481 5.56904 43.8981 5.39904 48.2581C5.36904 49.1581 6.46904 49.6181 7.06904 48.9481C8.03904 47.8581 9.30904 46.7381 10.189 47.1081C13.069 48.3281 13.289 53.4281 16.059 53.4281C18.489 53.4281 20.579 50.9981 21.599 49.5681C26.259 58.3581 33.439 65.6281 38.339 65.6281C43.239 65.6281 50.409 58.3681 55.079 49.5681C56.099 50.9981 58.189 53.4281 60.619 53.4281C63.389 53.4281 63.609 48.3281 66.489 47.1081C67.369 46.7381 68.639 47.8481 69.609 48.9481C70.209 49.6181 71.319 49.1581 71.279 48.2581C71.109 43.8981 68.219 38.8481 64.709 38.0181H64.729ZM33.139 35.2781C31.359 36.1081 28.659 34.0981 27.109 30.7781C25.559 27.4581 25.759 24.0981 27.539 23.2681C29.319 22.4381 32.019 24.4481 33.569 27.7681C35.119 31.0881 34.929 34.4481 33.139 35.2781ZM49.589 30.7781C48.039 34.0981 45.339 36.1081 43.559 35.2781C41.779 34.4481 41.579 31.0781 43.129 27.7681C44.679 24.4481 47.379 22.4381 49.159 23.2681C50.939 24.0981 51.139 27.4681 49.589 30.7781Z" fill="white"/>
</g>
<defs>
<clipPath id="clip0_334_23">
<rect width="76.71" height="76.71" fill="white" transform="translate(0 0.5)"/>
</clipPath>
</defs>
</svg>
