<svg width="77" height="78" viewBox="0 0 77 78" fill="none" xmlns="http://www.w3.org/2000/svg">
<g clip-path="url(#clip0_334_20)">
<rect width="76.71" height="76.71" transform="translate(0 0.5)" fill="#66A945"/>
<path d="M70.14 0.5H6.57C2.94149 0.5 0 3.44149 0 7.07V70.64C0 74.2685 2.94149 77.21 6.57 77.21H70.14C73.7685 77.21 76.71 74.2685 76.71 70.64V7.07C76.71 3.44149 73.7685 0.5 70.14 0.5Z" fill="#66A945"/>
<path d="M11.4707 67.1219H29.1007C29.1007 67.1219 33.9207 22.7319 31.4307 22.7319C28.9407 22.7319 11.4707 67.1219 11.4707 67.1219ZM41.0707 67.1219H58.6907C58.6907 67.1219 67.0007 22.7319 64.5107 22.7319C62.0207 22.7319 41.0707 67.1219 41.0707 67.1219ZM35.0807 67.1219L47.8807 41.6819C47.8807 41.6819 52.5407 11.4219 50.3707 11.4219C48.2007 11.4219 37.2307 38.3619 37.2307 38.3619L35.0707 67.1219H35.0807Z" fill="white"/>
</g>
<defs>
<clipPath id="clip0_334_20">
<rect width="76.71" height="76.71" fill="white" transform="translate(0 0.5)"/>
</clipPath>
</defs>
</svg>
