<svg width="77" height="78" viewBox="0 0 77 78" fill="none" xmlns="http://www.w3.org/2000/svg">
<g clip-path="url(#clip0_334_26)">
<rect width="76.71" height="76.71" transform="translate(0 0.5)" fill="#9C7743"/>
<path d="M70.14 0.5H6.57C2.94149 0.5 0 3.44149 0 7.07V70.64C0 74.2685 2.94149 77.21 6.57 77.21H70.14C73.7685 77.21 76.71 74.2685 76.71 70.64V7.07C76.71 3.44149 73.7685 0.5 70.14 0.5Z" fill="#9C7743"/>
<path d="M52.2898 16.5719H60.5998V24.8819H52.2898V16.5719ZM27.8498 23.0619H34.3298V29.5419H27.8498V23.0619ZM13.5498 9.42188H24.3598V20.2319H13.5498V9.42188ZM67.4398 48.7119V46.6019L38.3498 34.9919L9.25977 46.6019V48.7119L38.3498 60.3119L67.4398 48.7119Z" fill="white"/>
<path d="M67.5207 54.0195L38.3507 65.7995L9.1907 54.0195L7.7207 57.6595L38.3507 70.0395L68.9907 57.6595L67.5207 54.0195Z" fill="white"/>
</g>
<defs>
<clipPath id="clip0_334_26">
<rect width="76.71" height="76.71" fill="white" transform="translate(0 0.5)"/>
</clipPath>
</defs>
</svg>
