<svg width="77" height="78" viewBox="0 0 77 78" fill="none" xmlns="http://www.w3.org/2000/svg">
<g clip-path="url(#clip0_334_33)">
<rect width="76.71" height="76.71" transform="translate(0 0.5)" fill="#949495"/>
<path d="M70.14 0.5H6.57C2.94149 0.5 0 3.44149 0 7.07V70.64C0 74.2685 2.94149 77.21 6.57 77.21H70.14C73.7685 77.21 76.71 74.2685 76.71 70.64V7.07C76.71 3.44149 73.7685 0.5 70.14 0.5Z" fill="#949495"/>
<path d="M63.8102 26.9309C66.9302 22.6409 66.2402 16.6009 62.1202 13.1409C58.1202 9.78091 52.3002 10.0309 48.5802 13.5309C45.4002 12.3209 41.9502 11.6509 38.3502 11.6509C34.7502 11.6509 31.3002 12.3209 28.1202 13.5309C24.4102 10.0309 18.5902 9.79091 14.5802 13.1409C10.4502 16.6009 9.77024 22.6309 12.8902 26.9309C10.7202 30.9809 9.49023 35.6009 9.49023 40.5109C9.49023 56.4209 22.4402 69.3709 38.3502 69.3709C54.2602 69.3709 67.2102 56.4209 67.2102 40.5109C67.2102 35.6009 65.9802 30.9809 63.8102 26.9309ZM38.3502 61.3709C26.8502 61.3709 17.4902 52.0109 17.4902 40.5109C17.4902 29.0109 26.8502 19.6509 38.3502 19.6509C49.8502 19.6509 59.2102 29.0109 59.2102 40.5109C59.2102 52.0109 49.8502 61.3709 38.3502 61.3709Z" fill="white"/>
</g>
<defs>
<clipPath id="clip0_334_33">
<rect width="76.71" height="76.71" fill="white" transform="translate(0 0.5)"/>
</clipPath>
</defs>
</svg>
