<svg width="77" height="78" viewBox="0 0 77 78" fill="none" xmlns="http://www.w3.org/2000/svg">
<g clip-path="url(#clip0_334_57)">
<rect width="76.71" height="76.71" transform="translate(0 0.5)" fill="#69A9C7"/>
<path d="M70.14 0.5H6.57C2.94149 0.5 0 3.44149 0 7.07V70.64C0 74.2685 2.94149 77.21 6.57 77.21H70.14C73.7685 77.21 76.71 74.2685 76.71 70.64V7.07C76.71 3.44149 73.7685 0.5 70.14 0.5Z" fill="#69A9C7"/>
<path d="M41 27.8491L50.18 59.8691L67.55 47.2491L59.52 22.5391L41 27.8491ZM52.3 38.0991C49.78 38.0991 47.74 36.0591 47.74 33.5391C47.74 31.0191 49.78 28.9791 52.3 28.9791C54.82 28.9791 56.86 31.0191 56.86 33.5391C56.86 36.0591 54.82 38.0991 52.3 38.0991Z" fill="white"/>
<path d="M37.9004 38.7097L33.6104 23.7597L57.6804 16.8597L56.4004 12.9297H20.3004L9.15039 47.2497L37.9004 38.7097ZM26.0304 15.7297C27.9004 15.7297 29.4104 17.2397 29.4104 19.1097C29.4104 20.9797 27.9004 22.4897 26.0304 22.4897C24.1604 22.4897 22.6504 20.9797 22.6504 19.1097C22.6504 17.2397 24.1604 15.7297 26.0304 15.7297ZM39.0404 42.6797L13.3504 50.3097L38.3504 68.4797L45.0404 63.6097L39.0404 42.6797Z" fill="white"/>
</g>
<defs>
<clipPath id="clip0_334_57">
<rect width="76.71" height="76.71" fill="white" transform="translate(0 0.5)"/>
</clipPath>
</defs>
</svg>
