<svg width="77" height="78" viewBox="0 0 77 78" fill="none" xmlns="http://www.w3.org/2000/svg">
<g clip-path="url(#clip0_334_53)">
<rect width="76.71" height="76.71" transform="translate(0 0.5)" fill="#4C4948"/>
<path d="M70.14 0.5H6.57C2.94149 0.5 0 3.44149 0 7.07V70.64C0 74.2685 2.94149 77.21 6.57 77.21H70.14C73.7685 77.21 76.71 74.2685 76.71 70.64V7.07C76.71 3.44149 73.7685 0.5 70.14 0.5Z" fill="#4C4948"/>
<path d="M60.0994 21.2305C60.0994 21.2305 56.8494 25.6405 49.3194 27.9705C50.1594 30.2505 50.6394 32.9005 50.6394 35.8705C50.6394 46.0205 45.1394 54.2605 38.3594 54.2605C31.5794 54.2605 26.0794 46.9905 26.0794 35.8705C26.0794 32.9205 26.6594 30.2905 27.5994 28.0305C19.9294 25.7105 16.6194 21.2305 16.6194 21.2305C16.6194 21.2305 9.07936 29.2705 9.78936 38.4205C10.2094 43.7505 13.0894 50.0205 20.1394 55.8005C20.1394 55.8005 27.6794 62.4605 38.3594 62.4605C49.0394 62.4605 56.5794 55.8005 56.5794 55.8005C63.6294 50.0205 66.5094 43.7605 66.9294 38.4205C67.6494 29.2705 60.0994 21.2305 60.0994 21.2305Z" fill="white"/>
<path d="M35.5409 29.3516C34.5809 31.3516 33.9609 34.2416 33.9609 37.0716C33.9609 42.1516 35.9309 46.2616 38.3509 46.2616C40.7709 46.2616 42.7409 42.1416 42.7409 37.0716C42.7409 34.2316 42.1309 31.3416 41.1609 29.3516C40.2609 29.3916 39.3209 29.4016 38.3509 29.3716C37.3809 29.4016 36.4409 29.3916 35.5409 29.3516Z" fill="white"/>
</g>
<defs>
<clipPath id="clip0_334_53">
<rect width="76.71" height="76.71" fill="white" transform="translate(0 0.5)"/>
</clipPath>
</defs>
</svg>
