<svg width="77" height="78" viewBox="0 0 77 78" fill="none" xmlns="http://www.w3.org/2000/svg">
<g clip-path="url(#clip0_334_50)">
<rect width="76.71" height="76.71" transform="translate(0 0.5)" fill="#535CA8"/>
<path d="M70.14 0.5H6.57C2.94149 0.5 0 3.44149 0 7.07V70.64C0 74.2685 2.94149 77.21 6.57 77.21H70.14C73.7685 77.21 76.71 74.2685 76.71 70.64V7.07C76.71 3.44149 73.7685 0.5 70.14 0.5Z" fill="#535CA8"/>
<path d="M12.3905 24.4807C3.98049 35.5307 5.16049 51.2907 15.4105 60.9507C16.5005 57.3507 18.5505 54.0007 21.5105 51.3507C19.2332 48.2912 17.8362 44.6671 17.4705 40.8707C12.3405 36.9507 10.4705 30.3107 12.3905 24.4707V24.4807ZM64.3105 24.4807C66.2305 30.3207 64.3605 36.9607 59.2305 40.8807C58.8505 44.7607 57.4105 48.3507 55.1905 51.3607C58.1505 54.0107 60.2005 57.3507 61.2905 60.9607C71.5405 51.3107 72.7205 35.5407 64.3105 24.4907V24.4807ZM51.3605 25.8107C50.2405 18.4007 47.7305 10.0807 46.4705 6.17071C46.2505 5.49071 45.2105 5.51071 45.0305 6.20071C43.8605 10.4807 42.4305 17.2907 41.7905 20.4007C40.7205 20.2007 39.5005 20.0807 38.3705 20.0807C37.2405 20.0807 36.0205 20.1907 34.9505 20.4007C34.3105 17.2907 32.8805 10.4907 31.7105 6.20071C31.5205 5.51071 30.4905 5.48071 30.2705 6.17071C29.0105 10.0807 26.4905 18.3907 25.3805 25.8107C22.7105 28.8007 21.0805 32.7407 21.0805 37.1407C21.0805 43.4907 24.4505 50.9907 29.4705 55.3507L30.8505 67.6207C30.8505 69.4207 34.2205 72.0307 38.3805 72.0307C42.5405 72.0307 45.9105 69.4107 45.9105 67.6207L47.2905 55.3507C52.3105 50.9907 55.6805 43.4907 55.6805 37.1407C55.6805 32.7407 54.0505 28.8007 51.3805 25.8107H51.3605ZM29.8105 49.3207C26.8305 48.4007 24.7505 45.7107 24.6605 42.5907C24.5405 38.9207 24.7305 35.0007 24.7305 35.0007L33.9305 50.4107C32.3205 50.0407 30.9605 49.6707 29.8105 49.3207ZM46.9105 49.3207C45.7705 49.6707 44.4005 50.0507 42.7905 50.4107L51.9905 35.0007C51.9905 35.0007 52.1805 38.9207 52.0605 42.5907C52.0112 44.1095 51.4882 45.5748 50.5648 46.7816C49.6413 47.9884 48.3636 48.8762 46.9105 49.3207Z" fill="white"/>
</g>
<defs>
<clipPath id="clip0_334_50">
<rect width="76.71" height="76.71" fill="white" transform="translate(0 0.5)"/>
</clipPath>
</defs>
</svg>
