<svg width="324" height="325" viewBox="0 0 324 325" fill="none" xmlns="http://www.w3.org/2000/svg">
<rect width="324" height="324" transform="translate(0 0.5)" fill="#FBB917"/>
<path d="M33.4048 2.10484L36.8668 2.08584C40.6908 2.06884 44.5158 2.07384 48.3398 2.07884C51.0838 2.07218 53.8271 2.06351 56.5698 2.05284C63.2464 2.03377 69.9231 2.0261 76.5998 2.02984C83.5938 2.03142 90.5878 2.02576 97.5818 2.01284L99.9428 2.00984C114.671 1.99084 129.398 1.99184 144.126 1.99984C157.589 2.00484 171.051 1.98384 184.514 1.94984C198.348 1.91651 212.182 1.90218 226.016 1.90684C233.778 1.90884 241.54 1.90384 249.303 1.87884C255.912 1.85684 262.521 1.85484 269.13 1.87284C272.499 1.88351 275.868 1.88018 279.238 1.86284C282.898 1.84384 286.556 1.85684 290.216 1.87784C291.799 1.85784 291.799 1.85784 293.414 1.83984C301.473 1.93584 308.138 3.92584 314.152 9.48884C321.296 17.0288 322.446 23.8398 322.395 33.9028L322.414 37.3648C322.431 41.1888 322.426 45.0138 322.421 48.8378C322.427 51.5818 322.436 54.3252 322.447 57.0678C322.467 63.7448 322.472 70.4218 322.47 77.0978C322.468 84.0918 322.474 91.0858 322.487 98.0798L322.49 100.441C322.509 115.169 322.508 129.896 322.5 144.624C322.495 158.087 322.516 171.549 322.55 185.012C322.583 198.846 322.597 212.68 322.593 226.514C322.591 234.276 322.596 242.038 322.621 249.801C322.643 256.41 322.645 263.019 322.627 269.628C322.616 272.997 322.619 276.367 322.637 279.736C322.656 283.396 322.643 287.054 322.622 290.714L322.66 293.912C322.564 301.971 320.574 308.636 315.011 314.65C307.471 321.794 300.66 322.944 290.597 322.893L287.135 322.912C283.311 322.929 279.486 322.924 275.662 322.919C272.918 322.926 270.174 322.934 267.432 322.945C260.755 322.965 254.078 322.97 247.402 322.968C240.408 322.966 233.414 322.972 226.42 322.985L224.059 322.988C209.331 323.007 194.604 323.006 179.876 322.998C166.413 322.993 152.951 323.014 139.488 323.048C125.654 323.081 111.82 323.096 97.9858 323.091C90.2238 323.089 82.4618 323.094 74.6988 323.119C68.0901 323.141 61.4811 323.143 54.8718 323.125C51.5025 323.114 48.1331 323.117 44.7638 323.135C41.1038 323.154 37.4458 323.141 33.7858 323.12L30.5878 323.158C22.5288 323.062 15.8638 321.072 9.8498 315.509C2.7058 307.969 1.5558 301.158 1.6068 291.095L1.5878 287.633C1.5708 283.809 1.5758 279.984 1.5808 276.16C1.57413 273.416 1.56546 270.673 1.5548 267.93C1.53572 261.253 1.52805 254.577 1.5318 247.9C1.53338 240.906 1.52771 233.912 1.5148 226.918L1.5118 224.557C1.4928 209.829 1.4938 195.102 1.5018 180.374C1.5068 166.911 1.4858 153.449 1.4518 139.986C1.41846 126.152 1.40413 112.318 1.4088 98.4838C1.4108 90.7218 1.4058 82.9598 1.3808 75.1968C1.3588 68.5882 1.3568 61.9792 1.3748 55.3698C1.38546 52.0005 1.38213 48.6312 1.3648 45.2618C1.3458 41.6018 1.3588 37.9438 1.3798 34.2838L1.3418 31.0858C1.4378 23.0268 3.4278 16.3618 8.9908 10.3478C16.5308 3.20384 23.3418 2.05384 33.4048 2.10484Z" fill="#FBB917"/>
<path d="M159 31.5C186.711 44.347 212.82 58.698 237 77.5L238.829 78.91C241.522 81.054 242.888 82.164 244 85.5C242.405 87.6739 240.694 89.7603 238.875 91.75L237.235 93.609C236.084 94.9134 234.929 96.2144 233.77 97.512C230.921 100.712 228.118 103.95 225.312 107.188L223.657 109.092C219.712 113.639 215.897 118.278 212.109 122.957C209.269 126.381 206.274 129.651 203.277 132.937C200.013 136.611 196.93 140.423 193.847 144.25C192 146.5 192 146.5 190 148.5C189.162 151.283 189.162 151.283 190 154.5C191.669 156.407 193.508 157.894 195.484 159.48C198.267 161.714 200.877 164.081 203.5 166.5L205.002 167.88C209.458 171.983 213.888 176.113 218.312 180.25L220.305 182.11C232.853 193.87 232.853 193.87 236 198.5C234.519 201.94 232.576 204.17 229.93 206.8L227.46 209.264L224.875 211.812L222.359 214.326C217.98 218.675 213.518 222.852 208.84 226.876C205.924 229.45 203.218 232.219 200.5 235C196.45 239.1 192.354 243.031 187.957 246.762C184.713 249.643 181.713 252.767 178.687 255.875C175.922 258.575 173.047 261.095 170.127 263.626C166.541 266.785 163.09 270.085 159.625 273.375C149.784 282.667 149.784 282.667 145.25 286.813L143.078 288.801C140.838 290.632 138.513 292.072 136 293.5C136.592 285.116 138.76 277.25 141 269.188L141.594 267.018C144.795 255.343 148.35 243.768 152.256 232.309L153.348 229.051L154.317 226.228C155.091 223.136 155.349 220.673 155 217.5C153.652 215.641 153.652 215.641 151.625 214.309L149.413 212.656L147 210.937C145.337 209.702 143.676 208.465 142.016 207.227L139.463 205.345C135.805 202.605 132.276 199.718 128.75 196.813C123.843 192.791 118.884 188.832 113.875 184.938C108.47 180.728 103.237 176.349 98.065 171.858C93.517 167.911 88.855 164.144 84.109 160.438C81.936 158.442 80.945 157.272 80 154.5C80.697 152.287 80.697 152.287 82.05 149.844L83.582 147.038L85.312 144L87.086 140.811C93.756 128.938 100.854 117.319 108.009 105.733C109.787 102.844 111.552 99.9472 113.305 97.043C122.334 82.166 132.125 67.823 142 53.5L143.94 50.678C145.578 48.3016 147.223 45.9299 148.875 43.563L150.26 41.56C152.892 37.826 155.677 34.638 159 31.5Z" fill="#FFFEFE"/>
</svg>
