<svg width="77" height="78" viewBox="0 0 77 78" fill="none" xmlns="http://www.w3.org/2000/svg">
<g clip-path="url(#clip0_334_8)">
<rect width="76.71" height="76.71" transform="translate(0 0.5)" fill="#DD6B7B"/>
<path d="M70.14 0.5H6.57C2.94149 0.5 0 3.44149 0 7.07V70.64C0 74.2685 2.94149 77.21 6.57 77.21H70.14C73.7685 77.21 76.71 74.2685 76.71 70.64V7.07C76.71 3.44149 73.7685 0.5 70.14 0.5Z" fill="#DD6B7B"/>
<path d="M38.3498 16.7781C38.6398 16.7781 38.9398 16.9381 39.0698 17.2581C41.6898 23.5481 47.8598 27.5781 54.5398 27.5781C55.2498 27.5781 55.9698 27.5282 56.6898 27.4382H56.7998C57.4298 27.4382 57.8098 28.1682 57.4098 28.6982C52.8298 34.6782 52.8298 43.0381 57.3898 49.0281C57.7898 49.5481 57.3998 50.2781 56.7798 50.2781H56.6698C55.9498 50.1881 55.2398 50.1381 54.5298 50.1381C47.8498 50.1381 41.6798 54.1581 39.0598 60.4581C38.9298 60.7781 38.6298 60.9381 38.3398 60.9381C38.0498 60.9381 37.7498 60.7781 37.6198 60.4581C34.9998 54.1681 28.8298 50.1381 22.1498 50.1381C21.4398 50.1381 20.7198 50.1881 19.9998 50.2781H19.8898C19.2598 50.2781 18.8798 49.5482 19.2798 49.0182C23.8598 43.0382 23.8598 34.6782 19.2998 28.6882C18.8998 28.1682 19.2898 27.4382 19.9098 27.4382H20.0198C20.7398 27.5282 21.4498 27.5781 22.1598 27.5781C28.8398 27.5781 35.0098 23.5581 37.6298 17.2581C37.7598 16.9381 38.0598 16.7781 38.3498 16.7781ZM38.3498 8.07815C34.5098 8.07815 31.0698 10.3681 29.5998 13.9181C28.3698 16.8781 25.3798 18.8781 22.1598 18.8781C21.8198 18.8781 21.4798 18.8581 21.1398 18.8081C20.7398 18.7581 20.3298 18.7281 19.9198 18.7281C16.2998 18.7281 13.0398 20.7481 11.4298 23.9981C10.6387 25.5787 10.3083 27.35 10.4763 29.1095C10.6443 30.8691 11.3039 32.5458 12.3798 33.9482C14.5698 36.8282 14.5698 40.8482 12.3798 43.7182C11.2984 45.1194 10.6339 46.797 10.4623 48.5586C10.2908 50.3203 10.6191 52.0946 11.4098 53.6782C12.1856 55.2673 13.3936 56.6055 14.8953 57.5394C16.3969 58.4733 18.1314 58.965 19.8998 58.9581C20.3098 58.9581 20.7198 58.9282 21.1298 58.8782C21.4698 58.8382 21.8198 58.8082 22.1598 58.8082C25.3798 58.8082 28.3698 60.7982 29.5998 63.7682C31.0798 67.3182 34.5098 69.6082 38.3498 69.6082C42.1898 69.6082 45.6298 67.3182 47.0998 63.7682C48.3298 60.8082 51.3198 58.8082 54.5398 58.8082C54.8798 58.8082 55.2198 58.8282 55.5598 58.8782C55.9598 58.9282 56.3698 58.9581 56.7798 58.9581C60.3998 58.9581 63.6598 56.9381 65.2698 53.6881C66.0609 52.1075 66.3913 50.3363 66.2233 48.5768C66.0553 46.8172 65.3957 45.1405 64.3198 43.7382C62.1298 40.8582 62.1298 36.8382 64.3198 33.9682C66.5298 31.0782 66.8998 27.2681 65.2898 24.0081C64.514 22.419 63.306 21.0808 61.8043 20.1469C60.3027 19.213 58.5682 18.7213 56.7998 18.7281C56.3898 18.7281 55.9798 18.7581 55.5698 18.8081C55.2298 18.8481 54.8798 18.8781 54.5398 18.8781C51.3198 18.8781 48.3298 16.8881 47.0998 13.9181C46.3851 12.1866 45.1715 10.7068 43.6134 9.66684C42.0553 8.62692 40.2231 8.07391 38.3498 8.07815Z" fill="white"/>
</g>
<defs>
<clipPath id="clip0_334_8">
<rect width="76.71" height="76.71" fill="white" transform="translate(0 0.5)"/>
</clipPath>
</defs>
</svg>
