<svg width="77" height="78" viewBox="0 0 77 78" fill="none" xmlns="http://www.w3.org/2000/svg">
<g clip-path="url(#clip0_334_11)">
<rect width="76.71" height="76.71" transform="translate(0 0.5)" fill="#E09C40"/>
<path d="M70.14 0.5H6.57C2.94149 0.5 0 3.44149 0 7.07V70.64C0 74.2685 2.94149 77.21 6.57 77.21H70.14C73.7685 77.21 76.71 74.2685 76.71 70.64V7.07C76.71 3.44149 73.7685 0.5 70.14 0.5Z" fill="#E09C40"/>
<path d="M40.7195 34.5312H62.5195V44.4113H40.7195V34.5312ZM54.0495 12.5312V30.1912H62.5195V12.5312H54.0495ZM49.1895 12.5312H40.7195V30.1912H49.1895V12.5312ZM35.9895 12.5312H27.5195V35.7513H35.9895V12.5312ZM22.6595 12.5312H14.1895V35.7513H22.6595V12.5312ZM36.6895 43.9613H14.1895V56.9313L28.5995 66.3512L62.5195 55.8913V48.5112H36.6895V43.9713V43.9613Z" fill="white"/>
</g>
<defs>
<clipPath id="clip0_334_11">
<rect width="76.71" height="76.71" fill="white" transform="translate(0 0.5)"/>
</clipPath>
</defs>
</svg>
