<svg width="77" height="78" viewBox="0 0 77 78" fill="none" xmlns="http://www.w3.org/2000/svg">
<g clip-path="url(#clip0_334_14)">
<rect width="76.71" height="76.71" transform="translate(0 0.5)" fill="#E56C3E"/>
<path d="M70.14 0.5H6.57C2.94149 0.5 0 3.44149 0 7.07V70.64C0 74.2685 2.94149 77.21 6.57 77.21H70.14C73.7685 77.21 76.71 74.2685 76.71 70.64V7.07C76.71 3.44149 73.7685 0.5 70.14 0.5Z" fill="#E56C3E"/>
<path d="M55.7806 38.6001C50.4606 33.4501 52.1206 29.4601 54.5706 27.3401C54.5706 27.3401 48.0406 26.5501 45.7206 31.8701C43.3906 37.1901 47.8806 39.9301 47.8806 39.9301C47.8806 39.9301 41.4006 37.3501 43.2206 31.0301C44.8306 25.4701 47.7906 22.5501 46.4606 16.6501C44.9606 9.98011 35.4906 7.16011 30.9106 8.91011C34.1106 9.99011 36.4206 13.0001 36.4206 16.5701C36.4206 20.7301 33.1306 23.4901 28.7106 27.9601C23.6006 33.1101 18.3906 38.9301 18.3906 48.2701C18.3906 59.0501 25.0406 65.7201 33.0106 68.1401C28.9706 66.2101 20.5606 60.1501 21.6106 48.4901C22.7106 36.1901 34.5006 27.7901 34.5006 27.7901C34.5006 27.7901 31.9606 32.0501 33.0706 38.9501C33.6906 42.8301 36.4706 47.6001 39.1206 49.6701C42.8406 52.5801 47.7606 55.6001 47.0506 61.1201C46.3806 66.3001 39.5006 68.6201 36.0306 68.8301C37.6106 69.0901 39.2206 69.2001 40.8106 69.1501C52.6206 69.1501 61.3906 60.3701 61.3906 51.0301C61.3906 43.6401 57.8506 40.6001 55.7706 38.6001H55.7806Z" fill="white"/>
</g>
<defs>
<clipPath id="clip0_334_14">
<rect width="76.71" height="76.71" fill="white" transform="translate(0 0.5)"/>
</clipPath>
</defs>
</svg>
