<svg width="77" height="78" viewBox="0 0 77 78" fill="none" xmlns="http://www.w3.org/2000/svg">
<g clip-path="url(#clip0_334_17)">
<rect width="76.71" height="76.71" transform="translate(0 0.5)" fill="#A2C3E7"/>
<path d="M70.14 0.5H6.57C2.94149 0.5 0 3.44149 0 7.07V70.64C0 74.2685 2.94149 77.21 6.57 77.21H70.14C73.7685 77.21 76.71 74.2685 76.71 70.64V7.07C76.71 3.44149 73.7685 0.5 70.14 0.5Z" fill="#A2C3E7"/>
<path d="M23.78 28.2012C21.84 32.6312 16.28 51.3212 14.97 61.3512C14.3 66.4412 13.66 68.2112 14.97 68.6012C16.63 69.1012 23.62 58.2912 26.11 54.1312C26.11 54.1312 42.03 56.5212 50.2 46.3412C50.39 46.1012 50.18 45.7512 49.88 45.8112C46.66 46.3612 35.07 48.1512 29.94 46.1612C29.94 46.1612 50.83 46.9712 60.32 31.4912C60.45 31.2912 60.24 31.0312 60.02 31.1112C56.73 32.3012 42.52 36.9712 34.01 34.7712C34.01 34.7712 47.84 33.9612 58.29 24.4612C68.74 14.9612 69.6 10.1612 68.85 9.4112C67.43 7.9912 60.2 11.5712 54.38 13.4012C48.56 15.2312 41.24 17.3912 36.42 18.3912C31.6 19.3912 27.61 19.4712 23.78 28.2012Z" fill="white"/>
</g>
<defs>
<clipPath id="clip0_334_17">
<rect width="76.71" height="76.71" fill="white" transform="translate(0 0.5)"/>
</clipPath>
</defs>
</svg>
