<svg width="77" height="78" viewBox="0 0 77 78" fill="none" xmlns="http://www.w3.org/2000/svg">
<g clip-path="url(#clip0_334_36)">
<rect width="76.71" height="76.71" transform="translate(0 0.5)" fill="#735198"/>
<path d="M70.14 0.5H6.57C2.94149 0.5 0 3.44149 0 7.07V70.64C0 74.2685 2.94149 77.21 6.57 77.21H70.14C73.7685 77.21 76.71 74.2685 76.71 70.64V7.07C76.71 3.44149 73.7685 0.5 70.14 0.5Z" fill="#735198"/>
<path d="M47.6992 57.2514C47.1492 52.5714 43.1792 48.9414 38.3492 48.9414C33.5192 48.9414 29.5492 52.5714 28.9992 57.2514C17.4892 58.0914 9.19922 60.4314 9.19922 63.1814C9.19922 66.6414 22.2492 69.4414 38.3492 69.4414C54.4492 69.4414 67.4992 66.6414 67.4992 63.1814C67.4992 60.4214 59.2092 58.0914 47.6992 57.2514Z" fill="white"/>
<path d="M28.3094 34.9195C34.495 34.9195 39.5094 29.9051 39.5094 23.7195C39.5094 17.5339 34.495 12.5195 28.3094 12.5195C22.1238 12.5195 17.1094 17.5339 17.1094 23.7195C17.1094 29.9051 22.1238 34.9195 28.3094 34.9195Z" fill="white"/>
<path d="M51.2806 44.7097C54.9478 44.7097 57.9206 41.7369 57.9206 38.0697C57.9206 34.4025 54.9478 31.4297 51.2806 31.4297C47.6135 31.4297 44.6406 34.4025 44.6406 38.0697C44.6406 41.7369 47.6135 44.7097 51.2806 44.7097Z" fill="white"/>
</g>
<defs>
<clipPath id="clip0_334_36">
<rect width="76.71" height="76.71" fill="white" transform="translate(0 0.5)"/>
</clipPath>
</defs>
</svg>
